<svg width="197" height="198" viewBox="0 0 197 198" fill="none" xmlns="http://www.w3.org/2000/svg">
<path fill-rule="evenodd" clip-rule="evenodd" d="M41.5332 43.7782C41.4624 43.847 41.392 43.9165 41.322 43.9865C33.7884 51.5201 33.198 63.144 40.0033 69.9493C46.8085 76.7545 58.4324 76.1641 65.966 68.6305C66.036 68.5605 66.1055 68.4901 66.1743 68.4193L41.5332 43.7782Z" fill="black"/>
<path fill-rule="evenodd" clip-rule="evenodd" d="M127.737 68.4193C127.806 68.4901 127.876 68.5605 127.946 68.6306C135.479 76.1641 147.103 76.7546 153.909 69.9493C160.714 63.1441 160.123 51.5202 152.59 43.9866C152.52 43.9165 152.449 43.8471 152.379 43.7782L127.737 68.4193Z" fill="black"/>
<path fill-rule="evenodd" clip-rule="evenodd" d="M149.136 95.2951C149.136 102.698 143.134 108.7 135.731 108.7C128.328 108.7 122.327 102.698 122.327 95.2951H72.4617C72.4617 102.698 66.4603 108.7 59.0571 108.7C51.654 108.7 45.6526 102.698 45.6526 95.2952H39.4865C18.0174 95.2952 0.613281 112.699 0.613281 134.168C0.613281 155.637 18.0175 173.042 39.4866 173.042H79.8671L79.8641 197.974L121.217 173.042H157.983C179.452 173.042 196.856 155.637 196.856 134.168C196.856 112.699 179.452 95.2952 157.983 95.2952L149.136 95.2951Z" fill="black"/>
<path d="M109.053 0C108.828 15.7654 108.417 27.1495 107.817 34.1522C107.256 41.1549 106.731 46.1167 106.245 49.0376H91.9209C91.4341 45.9669 90.8911 41.0051 90.2919 34.1522C89.7302 27.2618 89.3183 15.8778 89.0562 0H109.053ZM108.604 75.2134H89.5617V59.0361H108.604V75.2134Z" fill="black"/>
</svg>
