<svg width="301" height="173" viewBox="0 0 301 173" fill="none" xmlns="http://www.w3.org/2000/svg">
<path d="M40.8674 108.75C40.8674 109.662 40.6875 110.514 40.3276 111.305C39.9917 112.097 39.5238 112.793 38.924 113.393C38.3242 113.968 37.6165 114.436 36.8007 114.796C36.009 115.132 35.1573 115.3 34.2455 115.3C33.3338 115.3 32.4701 115.132 31.6544 114.796C30.8626 114.436 30.1669 113.968 29.5671 113.393C28.9912 112.793 28.5234 112.097 28.1635 111.305C27.8276 110.514 27.6597 109.662 27.6597 108.75C27.6597 107.862 27.8276 107.023 28.1635 106.231C28.5234 105.415 28.9912 104.719 29.5671 104.144C30.1669 103.544 30.8626 103.076 31.6544 102.74C32.4701 102.38 33.3338 102.2 34.2455 102.2C35.1573 102.2 36.009 102.38 36.8007 102.74C37.6165 103.076 38.3242 103.544 38.924 104.144C39.5238 104.719 39.9917 105.415 40.3276 106.231C40.6875 107.023 40.8674 107.862 40.8674 108.75ZM39.176 157.766H29.2791V119.223H39.176V157.766Z" fill="white"/>
<path d="M56.5224 157.766H46.6975V119.223H49.0728L52.3117 122.966C53.8952 121.526 55.6826 120.422 57.674 119.655C59.6894 118.863 61.7887 118.467 63.972 118.467C66.3232 118.467 68.5425 118.923 70.6298 119.835C72.7172 120.722 74.5406 121.958 76.1001 123.541C77.6596 125.101 78.8832 126.936 79.7709 129.047C80.6826 131.135 81.1384 133.366 81.1384 135.741V157.766H71.3136V135.741C71.3136 134.734 71.1217 133.786 70.7378 132.898C70.3539 131.987 69.8261 131.195 69.1543 130.523C68.4825 129.851 67.7028 129.323 66.8151 128.94C65.9273 128.556 64.9797 128.364 63.972 128.364C62.9403 128.364 61.9686 128.556 61.0569 128.94C60.1452 129.323 59.3535 129.851 58.6817 130.523C58.0099 131.195 57.4821 131.987 57.0982 132.898C56.7143 133.786 56.5224 134.734 56.5224 135.741V157.766Z" fill="white"/>
<path d="M115.579 138.153C115.579 136.809 115.315 135.513 114.788 134.266C114.284 132.994 113.588 131.879 112.7 130.919C111.813 129.935 110.769 129.155 109.569 128.58C108.394 127.98 107.134 127.68 105.79 127.68C104.447 127.68 103.175 127.908 101.976 128.364C100.8 128.82 99.7684 129.491 98.8807 130.379C98.017 131.267 97.3332 132.37 96.8294 133.69C96.3255 134.986 96.0736 136.473 96.0736 138.153C96.0736 139.76 96.3255 141.212 96.8294 142.507C97.3332 143.779 98.017 144.87 98.8807 145.782C99.7684 146.694 100.8 147.402 101.976 147.905C103.175 148.385 104.447 148.625 105.79 148.625C107.134 148.625 108.394 148.337 109.569 147.761C110.769 147.162 111.813 146.382 112.7 145.422C113.588 144.439 114.284 143.323 114.788 142.075C115.315 140.804 115.579 139.496 115.579 138.153ZM125.476 152.908C125.476 155.619 124.96 158.162 123.929 160.538C122.897 162.913 121.481 164.988 119.682 166.764C117.907 168.539 115.819 169.943 113.42 170.974C111.045 172.006 108.502 172.522 105.79 172.522L100.86 172.45V162.625L105.719 162.697C107.254 162.697 108.562 162.493 109.641 162.085C110.721 161.701 111.633 161.161 112.376 160.466C113.12 159.794 113.708 159.014 114.14 158.126C114.596 157.239 114.956 156.303 115.219 155.319C114.836 155.943 114.284 156.459 113.564 156.867C112.844 157.251 112.04 157.562 111.153 157.802C110.289 158.066 109.377 158.246 108.418 158.342C107.482 158.438 106.606 158.486 105.79 158.486C103.079 158.486 100.524 158.018 98.125 157.083C95.7497 156.147 93.6624 154.815 91.863 153.088C90.0875 151.336 88.684 149.201 87.6523 146.682C86.6207 144.163 86.1048 141.32 86.1048 138.153C86.1048 135.249 86.6207 132.55 87.6523 130.055C88.684 127.56 90.0875 125.401 91.863 123.577C93.6624 121.754 95.7497 120.326 98.125 119.295C100.524 118.263 103.079 117.747 105.79 117.747C107.038 117.747 108.274 117.903 109.497 118.215C110.721 118.527 111.909 118.959 113.06 119.511C114.212 120.062 115.303 120.71 116.335 121.454C117.391 122.198 118.374 123.002 119.286 123.865L123.101 119.295H125.476V152.908Z" fill="white"/>
<path d="M170.246 138.153C170.246 141.032 169.73 143.719 168.698 146.214C167.667 148.685 166.263 150.833 164.488 152.656C162.712 154.455 160.625 155.883 158.226 156.939C155.85 157.97 153.295 158.486 150.56 158.486C147.849 158.486 145.294 157.97 142.895 156.939C140.519 155.883 138.432 154.455 136.633 152.656C134.857 150.833 133.454 148.685 132.422 146.214C131.39 143.719 130.874 141.032 130.874 138.153C130.874 135.225 131.39 132.514 132.422 130.019C133.454 127.524 134.857 125.377 136.633 123.577C138.432 121.754 140.519 120.326 142.895 119.295C145.294 118.263 147.849 117.747 150.56 117.747C153.295 117.747 155.85 118.239 158.226 119.223C160.625 120.182 162.712 121.562 164.488 123.361C166.263 125.137 167.667 127.284 168.698 129.803C169.73 132.298 170.246 135.082 170.246 138.153ZM160.349 138.153C160.349 136.569 160.085 135.141 159.557 133.87C159.053 132.574 158.358 131.471 157.47 130.559C156.582 129.623 155.538 128.916 154.339 128.436C153.163 127.932 151.904 127.68 150.56 127.68C149.217 127.68 147.945 127.932 146.745 128.436C145.57 128.916 144.538 129.623 143.65 130.559C142.787 131.471 142.103 132.574 141.599 133.87C141.095 135.141 140.843 136.569 140.843 138.153C140.843 139.64 141.095 141.02 141.599 142.291C142.103 143.563 142.787 144.666 143.65 145.602C144.538 146.538 145.57 147.282 146.745 147.833C147.945 148.361 149.217 148.625 150.56 148.625C151.904 148.625 153.163 148.373 154.339 147.869C155.538 147.366 156.582 146.658 157.47 145.746C158.358 144.834 159.053 143.731 159.557 142.435C160.085 141.14 160.349 139.712 160.349 138.153Z" fill="white"/>
<path d="M205.334 157.766H173.197L189.428 129.083H173.197V119.295H205.334L189.104 147.977H205.334V157.766Z" fill="white"/>
<path d="M238.12 157.766H228.223V103.892H238.12V157.766Z" fill="white"/>
<path d="M255.538 157.766H245.641V103.892H255.538V157.766Z" fill="white"/>
<path d="M300.38 157.766H298.005L294.19 152.476C293.254 153.316 292.258 154.108 291.203 154.851C290.171 155.571 289.079 156.207 287.928 156.759C286.776 157.287 285.589 157.706 284.365 158.018C283.165 158.33 281.942 158.486 280.694 158.486C277.983 158.486 275.428 158.03 273.029 157.119C270.653 156.207 268.566 154.887 266.767 153.16C264.991 151.408 263.588 149.273 262.556 146.754C261.524 144.235 261.008 141.368 261.008 138.153C261.008 135.154 261.524 132.406 262.556 129.911C263.588 127.392 264.991 125.233 266.767 123.433C268.566 121.634 270.653 120.242 273.029 119.259C275.428 118.251 277.983 117.747 280.694 117.747C281.942 117.747 283.177 117.903 284.401 118.215C285.625 118.527 286.812 118.959 287.964 119.511C289.115 120.062 290.207 120.71 291.239 121.454C292.294 122.198 293.278 123.002 294.19 123.865L298.005 119.295H300.38V157.766ZM290.483 138.153C290.483 136.809 290.219 135.513 289.691 134.266C289.187 132.994 288.492 131.879 287.604 130.919C286.716 129.935 285.673 129.155 284.473 128.58C283.297 127.98 282.038 127.68 280.694 127.68C279.351 127.68 278.079 127.908 276.879 128.364C275.704 128.82 274.672 129.491 273.784 130.379C272.921 131.267 272.237 132.37 271.733 133.69C271.229 134.986 270.977 136.473 270.977 138.153C270.977 139.832 271.229 141.332 271.733 142.651C272.237 143.947 272.921 145.038 273.784 145.926C274.672 146.814 275.704 147.486 276.879 147.941C278.079 148.397 279.351 148.625 280.694 148.625C282.038 148.625 283.297 148.337 284.473 147.761C285.673 147.162 286.716 146.382 287.604 145.422C288.492 144.439 289.187 143.323 289.691 142.075C290.219 140.804 290.483 139.496 290.483 138.153Z" fill="white"/>
<path d="M220.701 157.766H210.805V119.223H220.701V157.766Z" fill="white"/>
<path d="M25.7845 157.989H0V99.3875H10.1831V149.242H25.7845V157.989Z" fill="white"/>
<path fill-rule="evenodd" clip-rule="evenodd" d="M189.556 23.7415C189.518 23.7789 189.48 23.8165 189.442 23.8545C185.356 27.9401 185.036 34.2438 188.727 37.9344C192.417 41.625 198.721 41.3048 202.806 37.2193C202.844 37.1813 202.882 37.1431 202.919 37.1047L189.556 23.7415Z" fill="white"/>
<path fill-rule="evenodd" clip-rule="evenodd" d="M236.306 37.1047C236.343 37.1431 236.381 37.1812 236.419 37.2192C240.504 41.3048 246.808 41.625 250.499 37.9344C254.189 34.2438 253.869 27.94 249.784 23.8545C249.746 23.8165 249.707 23.7788 249.669 23.7415L236.306 37.1047Z" fill="white"/>
<path fill-rule="evenodd" clip-rule="evenodd" d="M206.329 51.6798H233.372C233.372 55.6946 236.626 58.9492 240.641 58.9492C244.656 58.9492 247.91 55.6946 247.91 51.6798H252.708C264.351 51.6798 273.79 61.1183 273.79 72.7612C273.79 84.4042 264.351 93.8427 252.708 93.8427H232.769L210.343 107.364L210.345 93.8427H188.446C176.803 93.8427 167.365 84.4042 167.365 72.7612C167.365 61.1183 176.803 51.6798 188.446 51.6798H191.79C191.79 55.6946 195.045 58.9492 199.06 58.9492C203.074 58.9492 206.329 55.6946 206.329 51.6798Z" fill="white"/>
<path d="M226.173 3.05176e-05C226.051 8.54981 225.828 14.7235 225.503 18.5212C225.198 22.3188 224.914 25.0097 224.65 26.5937H216.882C216.618 24.9284 216.323 22.2376 215.999 18.5212C215.694 14.7845 215.471 8.61074 215.328 3.05176e-05H226.173ZM225.929 40.7892H215.603V32.016H225.929V40.7892Z" fill="white"/>
</svg>
