<svg width="554" height="136" viewBox="0 0 554 136" fill="none" xmlns="http://www.w3.org/2000/svg">
<path d="M75.3578 17.5304C75.3578 19.2116 75.026 20.7821 74.3624 22.2421C73.743 23.702 72.8803 24.985 71.7743 26.091C70.6683 27.1528 69.3632 28.0155 67.859 28.6791C66.399 29.2984 64.8285 29.6081 63.1474 29.6081C61.4662 29.6081 59.8735 29.2984 58.3694 28.6791C56.9094 28.0155 55.6264 27.1528 54.5204 26.091C53.4586 24.985 52.596 23.702 51.9324 22.2421C51.313 20.7821 51.0033 19.2116 51.0033 17.5304C51.0033 15.8935 51.313 14.3451 51.9324 12.8852C52.596 11.381 53.4586 10.098 54.5204 9.03626C55.6264 7.93025 56.9094 7.06755 58.3694 6.44818C59.8735 5.78457 61.4662 5.45276 63.1474 5.45276C64.8285 5.45276 66.399 5.78457 67.859 6.44818C69.3632 7.06755 70.6683 7.93025 71.7743 9.03626C72.8803 10.098 73.743 11.381 74.3624 12.8852C75.026 14.3451 75.3578 15.8935 75.3578 17.5304ZM72.2388 107.914H53.9895V36.8414H72.2388V107.914Z" fill="black"/>
<path d="M104.225 107.914H86.1083V36.8414H90.4881L96.4606 43.7429C99.3805 41.0885 102.676 39.0534 106.348 37.6377C110.065 36.1778 113.936 35.4478 117.962 35.4478C122.297 35.4478 126.389 36.2884 130.238 37.9695C134.087 39.6064 137.45 41.8848 140.325 44.8047C143.201 47.6803 145.457 51.0646 147.094 54.9578C148.775 58.8067 149.616 62.9211 149.616 67.3009V107.914H131.499V67.3009C131.499 65.4428 131.145 63.6953 130.437 62.0584C129.73 60.3772 128.756 58.9173 127.518 57.6786C126.279 56.4398 124.841 55.4666 123.204 54.7587C121.567 54.0509 119.82 53.697 117.962 53.697C116.059 53.697 114.267 54.0509 112.586 54.7587C110.905 55.4666 109.445 56.4398 108.206 57.6786C106.968 58.9173 105.994 60.3772 105.287 62.0584C104.579 63.6953 104.225 65.4428 104.225 67.3009V107.914Z" fill="black"/>
<path d="M213.123 71.7471C213.123 69.2697 212.637 66.8806 211.663 64.5801C210.734 62.2353 209.451 60.1782 207.814 58.4086C206.177 56.5947 204.253 55.1569 202.041 54.0951C199.873 52.9891 197.551 52.4361 195.073 52.4361C192.596 52.4361 190.251 52.8564 188.039 53.697C185.871 54.5375 183.969 55.7762 182.332 57.4131C180.739 59.0501 179.478 61.0851 178.549 63.5183C177.62 65.9073 177.156 68.6503 177.156 71.7471C177.156 74.7113 177.62 77.3879 178.549 79.7769C179.478 82.1216 180.739 84.1346 182.332 85.8157C183.969 87.4969 185.871 88.802 188.039 89.731C190.251 90.6159 192.596 91.0583 195.073 91.0583C197.551 91.0583 199.873 90.5274 202.041 89.4656C204.253 88.3596 206.177 86.9217 207.814 85.1521C209.451 83.3382 210.734 81.281 211.663 78.9805C212.637 76.6358 213.123 74.2246 213.123 71.7471ZM231.372 98.9554C231.372 103.955 230.421 108.644 228.519 113.024C226.617 117.404 224.006 121.231 220.688 124.505C217.415 127.778 213.566 130.366 209.142 132.269C204.762 134.171 200.072 135.122 195.073 135.122L185.982 134.99V116.873L194.94 117.006C197.772 117.006 200.183 116.63 202.174 115.878C204.165 115.17 205.846 114.174 207.217 112.891C208.589 111.653 209.672 110.215 210.469 108.578C211.309 106.941 211.973 105.216 212.46 103.402C211.752 104.552 210.734 105.503 209.407 106.255C208.08 106.963 206.598 107.538 204.961 107.981C203.368 108.467 201.687 108.799 199.917 108.976C198.192 109.153 196.577 109.241 195.073 109.241C190.074 109.241 185.362 108.379 180.938 106.653C176.558 104.928 172.709 102.472 169.391 99.2872C166.118 96.0576 163.529 92.12 161.627 87.4748C159.725 82.8295 158.774 77.5869 158.774 71.7471C158.774 66.394 159.725 61.4169 161.627 56.8159C163.529 52.2149 166.118 48.2333 169.391 44.8711C172.709 41.5088 176.558 38.8765 180.938 36.9741C185.362 35.0718 190.074 34.1207 195.073 34.1207C197.374 34.1207 199.652 34.4082 201.908 34.9833C204.164 35.5584 206.354 36.3548 208.478 37.3723C210.602 38.3898 212.614 39.5843 214.517 40.9558C216.463 42.3272 218.277 43.8093 219.958 45.4019L226.993 36.9741H231.372V98.9554Z" fill="black"/>
<path d="M313.926 71.7471C313.926 77.056 312.975 82.011 311.072 86.6121C309.17 91.1688 306.582 95.1285 303.308 98.4908C300.034 101.809 296.185 104.441 291.761 106.388C287.381 108.29 282.67 109.241 277.626 109.241C272.627 109.241 267.915 108.29 263.491 106.388C259.111 104.441 255.262 101.809 251.944 98.4908C248.671 95.1285 246.083 91.1688 244.18 86.6121C242.278 82.011 241.327 77.056 241.327 71.7471C241.327 66.3498 242.278 61.3506 244.18 56.7495C246.083 52.1485 248.671 48.1891 251.944 44.8711C255.262 41.5088 259.111 38.8765 263.491 36.9741C267.915 35.0718 272.627 34.1207 277.626 34.1207C282.67 34.1207 287.381 35.0275 291.761 36.8414C296.185 38.611 300.034 41.1548 303.308 44.4729C306.582 47.7467 309.17 51.7061 311.072 56.3514C312.975 60.9524 313.926 66.0843 313.926 71.7471ZM295.676 71.7471C295.676 68.8273 295.19 66.1949 294.216 63.8501C293.287 61.4611 292.004 59.4261 290.368 57.745C288.731 56.0196 286.806 54.7145 284.594 53.8297C282.426 52.9006 280.104 52.4361 277.626 52.4361C275.149 52.4361 272.804 52.9006 270.592 53.8297C268.424 54.7145 266.522 56.0196 264.885 57.745C263.292 59.4261 262.031 61.4611 261.102 63.8501C260.173 66.1949 259.709 68.8273 259.709 71.7471C259.709 74.4901 260.173 77.0339 261.102 79.3787C262.031 81.7234 263.292 83.7585 264.885 85.4839C266.522 87.2093 268.424 88.5808 270.592 89.5983C272.804 90.5716 275.149 91.0583 277.626 91.0583C280.104 91.0583 282.426 90.5937 284.594 89.6647C286.806 88.7356 288.731 87.4305 290.368 85.7494C292.004 84.0682 293.287 82.0331 294.216 79.6441C295.19 77.2551 295.676 74.6228 295.676 71.7471Z" fill="black"/>
<path d="M378.628 107.914H319.367L349.296 55.0242H319.367V36.9741H378.628L348.699 89.8638H378.628V107.914Z" fill="black"/>
<path d="M439.083 107.914H420.833V8.57174H439.083V107.914Z" fill="black"/>
<path d="M471.201 107.914H452.952V8.57174H471.201V107.914Z" fill="black"/>
<path d="M553.887 107.914H549.507L542.473 98.159C540.747 99.7074 538.912 101.167 536.965 102.539C535.063 103.866 533.05 105.039 530.926 106.056C528.803 107.029 526.613 107.804 524.356 108.379C522.144 108.954 519.888 109.241 517.588 109.241C512.588 109.241 507.877 108.401 503.453 106.72C499.073 105.039 495.224 102.605 491.906 99.4199C488.632 96.1903 486.044 92.2527 484.142 87.6075C482.239 82.9622 481.288 77.6754 481.288 71.7471C481.288 66.2171 482.239 61.1515 484.142 56.5505C486.044 51.9052 488.632 47.9237 491.906 44.6056C495.224 41.2876 499.073 38.7216 503.453 36.9078C507.877 35.0497 512.588 34.1207 517.588 34.1207C519.888 34.1207 522.166 34.4082 524.423 34.9833C526.679 35.5584 528.869 36.3548 530.992 37.3723C533.116 38.3898 535.129 39.5843 537.031 40.9558C538.978 42.3272 540.792 43.8093 542.473 45.4019L549.507 36.9741H553.887V107.914ZM535.638 71.7471C535.638 69.2697 535.151 66.8806 534.178 64.5801C533.249 62.2353 531.966 60.1782 530.329 58.4086C528.692 56.5947 526.767 55.1569 524.555 54.0951C522.388 52.9891 520.065 52.4361 517.588 52.4361C515.11 52.4361 512.765 52.8564 510.553 53.697C508.385 54.5375 506.483 55.7762 504.846 57.4131C503.254 59.0501 501.993 61.0851 501.064 63.5183C500.135 65.9073 499.67 68.6503 499.67 71.7471C499.67 74.844 500.135 77.6091 501.064 80.0423C501.993 82.4313 503.254 84.4443 504.846 86.0812C506.483 87.7181 508.385 88.9568 510.553 89.7974C512.765 90.638 515.11 91.0583 517.588 91.0583C520.065 91.0583 522.388 90.5274 524.555 89.4656C526.767 88.3596 528.692 86.9217 530.329 85.1521C531.966 83.3382 533.249 81.281 534.178 78.9805C535.151 76.6358 535.638 74.2246 535.638 71.7471Z" fill="black"/>
<path d="M406.964 107.914H388.715V36.8414H406.964V107.914Z" fill="black"/>
<path d="M47.5455 108.324H0V0.266113H18.7772V92.1957H47.5455V108.324Z" fill="black"/>
</svg>
